<?xml version="1.0" encoding="UTF-8" standalone="no"?>
<!-- Created with Inkscape (http://www.inkscape.org/) -->

<svg
   xmlns:dc="http://purl.org/dc/elements/1.1/"
   xmlns:cc="http://creativecommons.org/ns#"
   xmlns:rdf="http://www.w3.org/1999/02/22-rdf-syntax-ns#"
   xmlns:svg="http://www.w3.org/2000/svg"
   xmlns="http://www.w3.org/2000/svg"
   xmlns:sodipodi="http://sodipodi.sourceforge.net/DTD/sodipodi-0.dtd"
   xmlns:inkscape="http://www.inkscape.org/namespaces/inkscape"
   xml:space="preserve"
   width="125mm"
   height="125mm"
   version="1.1"
   viewBox="0 0 12500 12500"
   id="nx"
   sodipodi:docname="nx.svg"
   inkscape:version="0.92.1 r15371"><metadata
     id="metadata15"><rdf:RDF><cc:Work
         rdf:about=""><dc:format>image/svg+xml</dc:format></cc:Work></rdf:RDF></metadata><sodipodi:namedview
     pagecolor="#ffffff"
     bordercolor="#666666"
     borderopacity="1"
     objecttolerance="10"
     gridtolerance="10"
     guidetolerance="10"
     inkscape:pageopacity="0"
     inkscape:pageshadow="2"
     inkscape:window-width="1920"
     inkscape:window-height="1137"
     id="namedview13"
     showgrid="false"
     inkscape:zoom="0.99906667"
     inkscape:cx="131.34886"
     inkscape:cy="409.1598"
     inkscape:window-x="0"
     inkscape:window-y="0"
     inkscape:window-maximized="1"
     inkscape:current-layer="nx" /><defs
     id="defs4" /><g
     id="saw"><path
       style="fill:#966b3b;stroke:#704721;stroke-width:7.61999989;stroke-miterlimit:22.92560005"
       inkscape:connector-curvature="0"
       sodipodi:nodetypes=""
       d="m 10545.01,4010.17 -1179.84,-1198.06 655.25,-424.16 912.74,1340.9 z m 1098.22,-133.94 c 91.04,-305.01 27.31,-562.77 -389.65,-653.46 l -549.13,-1026.6 c -37.89,-505.57 -127.65,-654.81 -588.83,-822.7 L 8474.48,2876.29 c 0,0 1270.6,1116.04 1905.9,1674.05 z"
       class="fil2 str1"
       id="path1" /><polygon
       style="fill:#797b79;stroke:#1f1b20;stroke-width:20;stroke-miterlimit:22.92560005"
       inkscape:connector-curvature="0"
       sodipodi:nodetypes="ccccccccccccccccccccccccccccccccc"
       points="7015.76,6606.81 6981.97,6036.03 7396.76,6418.29 7329.98,5826.55 7801.24,6181.53 7710.19,5601.89 8194.81,5972.29 8087.59,5382.14 8584.1,5754.91 8478.34,5183.82 8968.86,5543.37 8906.18,4966.58 9376.62,5317.74 9285.43,4754.26 9779.19,5090.25 9688.17,4507.6 10175.13,4886.75 10172.34,4367.61 8571.37,2961.4 4841.16,6399.81 5352.88,7044.93 5790.9,7299.37 5754.55,6764.11 6168.97,7090.62 6165.22,6512.37 6596.13,6853.12 6554.87,6264.1 "
       class="fil1 str0"
       id="path2" /></g><path
     id="disc"
     class="fil0"
     d="m 6250.01,7865.01 c -888.45,0 -1608.68,-721.63 -1608.68,-1611.81 0,-890.18 720.23,-1611.81 1608.63,-1611.81 l -23.2,-3950.71 c -3075.18,14.1 -5563.7,2498.27 -5563.7,5560.59 0,3071.05 2502.74,5560.64 5590.03,5560.64 3087.24,0 5589.8,-2488.96 5590.01,-5561.46 l -3984.41,2.75 C 7857,7154.06 7129.87,7865.01 6250.01,7865.01 Z"
     inkscape:connector-curvature="0"
     style="fill:#244ba6" /></svg>