<?xml version="1.0" encoding="UTF-8" standalone="no"?>
<!-- Created with Inkscape (http://www.inkscape.org/) -->

<svg
   xmlns:dc="http://purl.org/dc/elements/1.1/"
   xmlns:cc="http://creativecommons.org/ns#"
   xmlns:rdf="http://www.w3.org/1999/02/22-rdf-syntax-ns#"
   xmlns:svg="http://www.w3.org/2000/svg"
   xmlns="http://www.w3.org/2000/svg"
   xmlns:xlink="http://www.w3.org/1999/xlink"
   xmlns:sodipodi="http://sodipodi.sourceforge.net/DTD/sodipodi-0.dtd"
   xmlns:inkscape="http://www.inkscape.org/namespaces/inkscape"
   xml:space="preserve"
   width="125mm"
   height="125mm"
   version="1.1"
   style="shape-rendering:geometricPrecision; text-rendering:geometricPrecision; image-rendering:optimizeQuality; fill-rule:evenodd; clip-rule:evenodd"
   viewBox="0 0 12500 12500"
   id="svg62"
   sodipodi:docname="opennx-admin.svg"
   inkscape:version="0.92.1 r15371"><metadata
     id="metadata66"><rdf:RDF><cc:Work
         rdf:about=""><dc:format>image/svg+xml</dc:format><dc:type
           rdf:resource="http://purl.org/dc/dcmitype/StillImage" /></cc:Work></rdf:RDF></metadata><sodipodi:namedview
     pagecolor="#ffffff"
     bordercolor="#666666"
     borderopacity="1"
     objecttolerance="10"
     gridtolerance="10"
     guidetolerance="10"
     inkscape:pageopacity="0"
     inkscape:pageshadow="2"
     inkscape:window-width="1920"
     inkscape:window-height="1137"
     id="namedview64"
     showgrid="false"
     inkscape:zoom="2.8257873"
     inkscape:cx="390.27944"
     inkscape:cy="126.19032"
     inkscape:window-x="0"
     inkscape:window-y="0"
     inkscape:window-maximized="1"
     inkscape:current-layer="svg62" />
    <defs id="defs29">
  <linearGradient id="id0" gradientUnits="userSpaceOnUse" x1="22097.31" y1="-161646.74" x2="22097.31" y2="-175646.13">
   <stop offset="0" style="stop-opacity:1; stop-color:white"/>
   <stop offset="1" style="stop-opacity:0; stop-color:white"/>
  </linearGradient>
  <radialGradient id="id1" gradientUnits="userSpaceOnUse" gradientTransform="matrix(2.77828 -0 -0 3.02203 -22041 -24700)" cx="12394.33" cy="12215.36" r="803.96" fx="12394.33" fy="12215.36">
   <stop offset="0" style="stop-opacity:1; stop-color:lime"/>
   <stop offset="1" style="stop-opacity:0; stop-color:lime"/>
  </radialGradient>
  <radialGradient id="id2" gradientUnits="userSpaceOnUse" gradientTransform="matrix(-2.16969 2.6571E-16 -5.1855E-16 -4.23428 34634 28932)" cx="10926.62" cy="5527.35" r="2004.09" fx="10926.62" fy="5527.35">
   <stop offset="0" style="stop-opacity:1; stop-color:#00BF00"/>
   <stop offset="1" style="stop-opacity:1; stop-color:#004D00"/>
  </radialGradient>
  <radialGradient id="id3" gradientUnits="userSpaceOnUse" gradientTransform="matrix(-0.803553 -9.84068E-17 -5.72164E-16 -5.74578 26030 31278)" cx="14432.9" cy="4636.65" r="2449.44" fx="14432.9" fy="4636.65">
   <stop offset="0" style="stop-opacity:1; stop-color:white"/>
   <stop offset="1" style="stop-opacity:0; stop-color:white"/>
  </radialGradient>
  <radialGradient id="id4" gradientUnits="userSpaceOnUse" gradientTransform="matrix(-1.42595 -1.74628E-16 -3.00196E-16 -3.01463 35013 18614)" cx="14432.9" cy="4636.65" r="2449.44" fx="14432.9" fy="4636.65">
   <stop offset="0" style="stop-opacity:1; stop-color:#EEEEEE"/>
   <stop offset="1" style="stop-opacity:1; stop-color:#BABDB6"/>
  </radialGradient>
 </defs>
    <g id="saw"><path
       style="fill:#966b3b;stroke:#704721;stroke-width:7.61999989;stroke-miterlimit:22.92560005"
       inkscape:connector-curvature="0"
       sodipodi:nodetypes="cccccccccccccccccccccc"
       d="m 10545.01,4010.17 -1179.84,-1198.06 655.25,-424.16 912.74,1340.9 z m 1098.22,-133.94 c 91.04,-305.01 27.31,-562.77 -389.65,-653.46 l -549.13,-1026.6 c -37.89,-505.57 -127.65,-654.81 -588.83,-822.7 L 8474.48,2876.29 c 0,0 1270.6,1116.04 1905.9,1674.05 z"
       class="fil2 str1"
       id="path1" /><polygon
       style="fill:#797b79;stroke:#1f1b20;stroke-width:20;stroke-miterlimit:22.92560005"
       inkscape:connector-curvature="0"
       sodipodi:nodetypes="ccccccccccccccccccccccccccccccccc"
       points="5754.55,6764.11 6168.97,7090.62 6165.22,6512.37 6596.13,6853.12 6554.87,6264.1 7015.76,6606.81 6981.97,6036.03 7396.76,6418.29 7329.98,5826.55 7801.24,6181.53 7710.19,5601.89 8194.81,5972.29 8087.59,5382.14 8584.1,5754.91 8478.34,5183.82 8968.86,5543.37 8906.18,4966.58 9376.62,5317.74 9285.43,4754.26 9779.19,5090.25 9688.17,4507.6 10175.13,4886.75 10172.34,4367.61 8571.37,2961.4 4841.16,6399.81 5352.88,7044.93 5790.9,7299.37 "
       class="fil1 str0"
       id="path2" /></g><path
     id="disc"
     class="fil0"
     d="m 6250.01,7865.01 c -888.45,0 -1608.68,-721.63 -1608.68,-1611.81 0,-890.18 720.23,-1611.81 1608.63,-1611.81 l -23.2,-3950.71 c -3075.18,14.1 -5563.7,2498.27 -5563.7,5560.59 0,3071.05 2502.74,5560.64 5590.03,5560.64 3087.24,0 5589.8,-2488.96 5590.01,-5561.46 l -3984.41,2.75 C 7857,7154.06 7129.87,7865.01 6250.01,7865.01 Z"
     inkscape:connector-curvature="0"
     style="fill:#244ba6" /><g
     id="shield"><polygon
       id="path4114"
       class="fil3"
       points="8980.99,11190.58 7599.74,11175.32 10322.06,11175.32 "
       style="fill:#ffffff;fill-opacity:0.01176501" /><polygon
       id="path4130"
       class="fil4"
       points="9300.3,11309.08 7507.57,11334.65 10587.89,11334.65 "
       style="fill:#000000;fill-opacity:0.01176501" /><polygon
       id="path4132"
       class="fil3"
       points="9300.3,11357.49 7507.57,11335.26 10571.07,11349.54 "
       style="fill:#ffffff;fill-opacity:0.01176501" /><polygon
       id="path4178"
       class="fil4"
       points="9113.71,11161.26 7320.98,11186.83 10854.29,11186.83 "
       style="fill:#000000;fill-opacity:0.01176501" /><polygon
       id="path4180"
       class="fil3"
       points="7320.98,11187.44 10682.46,11191.01 8941.88,11213.24 7320.97,11187.44 "
       style="fill:#ffffff;fill-opacity:0.01176501" /><polygon
       id="path4226"
       class="fil4"
       points="9113.71,11161.26 7320.98,11186.83 10680.06,11198.73 "
       style="fill:#000000;fill-opacity:0.01176501" /><path
       id="path3557"
       class="fil5 str2"
       d="m 9640.31,8618 c -357.06,334.7 -1105.29,633.23 -1366.4,701.29 0,1051.28 752.17,2640.15 1658.52,2640.15 904.33,0 1658.52,-1588.87 1658.52,-2640.15 -261.11,-68.06 -1009.34,-366.59 -1366.39,-701.29 -101.3,-69.42 -482.95,-69.38 -584.25,0 z"
       inkscape:connector-curvature="0"
       style="fill:#000000;fill-opacity:0.64313696;stroke:#000000;stroke-width:384.42001343;stroke-linecap:round;stroke-linejoin:round;stroke-miterlimit:22.92560005;stroke-opacity:0.64313696" /><path
       id="path3170"
       class="fil5 str3"
       d="m 9536.09,7212.26 c -484.44,483.17 -1499.62,914.13 -1853.88,1012.38 0,1517.64 1020.51,3811.34 2250.22,3811.34 1226.97,0 2250.23,-2293.7 2250.23,-3811.34 -354.26,-98.25 -1369.44,-529.21 -1853.88,-1012.38 -137.44,-100.21 -655.24,-100.16 -792.69,0 z"
       inkscape:connector-curvature="0"
       style="fill:#000000;fill-opacity:0.64313696;stroke:#000000;stroke-width:372.67999268;stroke-linecap:round;stroke-linejoin:round;stroke-miterlimit:22.92560005;stroke-opacity:0.64313696" /><path
       id="path2160"
       class="fil6"
       d="m 9536.09,7161.23 c -484.44,483.17 -1499.62,914.13 -1853.88,1012.39 0,1517.64 1020.52,3811.34 2250.23,3811.34 1226.97,0 2250.23,-2293.7 2250.23,-3811.34 -354.26,-98.25 -1369.44,-529.22 -1853.88,-1012.39 -137.44,-100.21 -655.24,-100.15 -792.69,0 z"
       inkscape:connector-curvature="0"
       style="fill:url(#id4)" /><g
       id="path3192"><image
         sodipodi:absref="/var/home/dim/Pictures/onx/../../../../../home/dim/NET.MS/DEVNUL/OLC/D$/##Олькина папка##/onx/nx_9_admin_Images\nx_9_admin_ImgID1.png"
         xlink:href="../../../../../home/dim/NET.MS/DEVNUL/OLC/D$/##Олькина папка##/onx/nx_9_admin_Images\nx_9_admin_ImgID1.png"
         id="image44"
         height="4934.1602"
         width="4541.1201"
         y="7056.21"
         x="7680.0298" /></g><g
       id="path3157"><image
         sodipodi:absref="/var/home/dim/Pictures/onx/../../../../../home/dim/NET.MS/DEVNUL/OLC/D$/##Олькина папка##/onx/nx_9_admin_Images\nx_9_admin_ImgID2.png"
         xlink:href="../../../../../home/dim/NET.MS/DEVNUL/OLC/D$/##Олькина папка##/onx/nx_9_admin_Images\nx_9_admin_ImgID2.png"
         id="image47"
         height="1686.89"
         width="4541.1201"
         y="7056.21"
         x="7680.0298" /></g><g
       id="path3490"><image
         sodipodi:absref="/var/home/dim/Pictures/onx/../../../../../home/dim/NET.MS/DEVNUL/OLC/D$/##Олькина папка##/onx/nx_9_admin_Images\nx_9_admin_ImgID3.png"
         xlink:href="../../../../../home/dim/NET.MS/DEVNUL/OLC/D$/##Олькина папка##/onx/nx_9_admin_Images\nx_9_admin_ImgID3.png"
         id="image50"
         height="611.48999"
         width="4541.1201"
         y="8131.6099"
         x="7680.0298" /></g><path
       id="path3547"
       class="fil7"
       d="m 9536.09,7161.23 c -484.44,483.17 -1499.62,914.13 -1853.88,1012.39 0,1517.64 1020.52,3811.34 2250.23,3811.34 1226.97,0 2250.23,-2293.7 2250.23,-3811.34 -354.26,-98.25 -1369.44,-529.22 -1853.88,-1012.39 -137.44,-100.21 -655.24,-100.15 -792.69,0 z"
       inkscape:connector-curvature="0"
       style="fill:url(#id3)" /><path
       id="path3145"
       class="fil8"
       d="m 9608.15,7592.92 c -396.36,395.32 -1226.96,747.93 -1516.81,828.32 0,1241.71 834.97,3118.37 1841.09,3118.37 1003.88,0 1841.09,-1876.66 1841.09,-3118.37 -289.85,-80.39 -1120.45,-432.99 -1516.81,-828.32 -112.45,-81.99 -536.11,-81.95 -648.57,0 z"
       inkscape:connector-curvature="0"
       style="fill:url(#id2)" /><path
       id="path3306"
       class="fil9"
       d="m 8091.34,8420.84 c 0,1241.71 834.97,3119.2 1841.09,3119.2 1003.88,0 1841.09,-1877.49 1841.09,-3119.2 -0.39,-0.11 -1.18,0.11 -1.6,0 -32.98,1240.74 -855.96,3068.17 -1839.5,3068.17 -985.73,0 -1806.6,-1827.42 -1839.49,-3068.17 -0.39,0.11 -1.18,-0.11 -1.6,0 z"
       inkscape:connector-curvature="0"
       style="fill:url(#id0)" /><g
       id="path3323"><image
         sodipodi:absref="/var/home/dim/Pictures/onx/../../../../../home/dim/NET.MS/DEVNUL/OLC/D$/##Олькина папка##/onx/nx_9_admin_Images\nx_9_admin_ImgID4.png"
         xlink:href="../../../../../home/dim/NET.MS/DEVNUL/OLC/D$/##Олькина папка##/onx/nx_9_admin_Images\nx_9_admin_ImgID4.png"
         id="image56"
         height="1180.8199"
         width="4541.1201"
         y="7056.21"
         x="7680.0298" /></g><path
       id="path3340"
       class="fil10"
       d="m 9715.62,8236.7 c -265,264.31 -820.34,500.06 -1014.14,553.81 0,830.2 558.26,2084.93 1230.95,2084.93 671.19,0 1230.95,-1254.73 1230.95,-2084.93 -193.79,-53.75 -749.13,-289.5 -1014.14,-553.81 -75.19,-54.82 -358.44,-54.79 -433.63,0 z"
       inkscape:connector-curvature="0"
       style="fill:url(#id1)" /></g></svg>