<?xml version="1.0" encoding="UTF-8" standalone="no"?>
<!-- Created with Inkscape (http://www.inkscape.org/) -->

<svg
   xmlns:dc="http://purl.org/dc/elements/1.1/"
   xmlns:cc="http://creativecommons.org/ns#"
   xmlns:rdf="http://www.w3.org/1999/02/22-rdf-syntax-ns#"
   xmlns:svg="http://www.w3.org/2000/svg"
   xmlns="http://www.w3.org/2000/svg"
   xmlns:xlink="http://www.w3.org/1999/xlink"
   xmlns:sodipodi="http://sodipodi.sourceforge.net/DTD/sodipodi-0.dtd"
   xmlns:inkscape="http://www.inkscape.org/namespaces/inkscape"
   id="svg33"
   sodipodi:version="0.32"
   inkscape:version="0.46+devel"
   width="512"
   height="512"
   xml:space="preserve"
   sodipodi:docname="nx.svg"
   inkscape:output_extension="org.inkscape.output.svg.inkscape"
   version="1.0"
   inkscape:export-filename="/home/felfert/OpenNXArtwork/nx.png"
   inkscape:export-xdpi="57.599998"
   inkscape:export-ydpi="57.599998"><metadata
     id="metadata39"><rdf:RDF><cc:Work
         rdf:about=""><dc:format>image/svg+xml</dc:format><dc:type
           rdf:resource="http://purl.org/dc/dcmitype/StillImage" /><dc:title></dc:title></cc:Work></rdf:RDF></metadata><defs
     id="defs37"><inkscape:perspective
       sodipodi:type="inkscape:persp3d"
       inkscape:vp_x="0 : 100 : 1"
       inkscape:vp_y="0 : 1000 : 0"
       inkscape:vp_z="200 : 100 : 1"
       inkscape:persp3d-origin="100 : 66.666667 : 1"
       id="perspective10" /><radialGradient
       r="184.67135"
       fy="397.96106"
       fx="245.41574"
       cy="397.96106"
       cx="245.41574"
       spreadMethod="reflect"
       gradientTransform="matrix(0.86464245,0,0,0.55506495,102.8747,103.2844)"
       gradientUnits="userSpaceOnUse"
       id="radialGradient30"
       xlink:href="#linearGradient1545"
       inkscape:collect="always" /><radialGradient
       r="184.67943"
       fy="397.94612"
       fx="245.4164"
       cy="397.94612"
       cx="245.4164"
       spreadMethod="reflect"
       gradientTransform="matrix(0.86463567,0,0,0.55506931,102.8747,103.2844)"
       gradientUnits="userSpaceOnUse"
       id="radialGradient27"
       xlink:href="#linearGradient1545"
       inkscape:collect="always" /><radialGradient
       gradientUnits="userSpaceOnUse"
       gradientTransform="scale(1.2876969,0.7765803)"
       r="184.67943"
       fy="397.94612"
       fx="245.4164"
       cy="397.94612"
       cx="245.4164"
       spreadMethod="reflect"
       id="radialGradient2397"
       xlink:href="#linearGradient1545"
       inkscape:collect="always" /><radialGradient
       gradientUnits="userSpaceOnUse"
       gradientTransform="scale(1.287707,0.7765742)"
       xlink:href="#linearGradient1545"
       spreadMethod="reflect"
       r="184.67135"
       inkscape:collect="always"
       id="radialGradient1544"
       fy="397.96106"
       fx="245.41574"
       cy="397.96106"
       cx="245.41574" /><linearGradient
       id="linearGradient1541"><stop
         style="stop-color:#000;stop-opacity:1;"
         offset="0"
         id="stop1542" /><stop
         style="stop-color:#fff;stop-opacity:1;"
         offset="1"
         id="stop1543" /></linearGradient><linearGradient
       id="linearGradient1545"><stop
         style="stop-color:#ffffff;stop-opacity:1.0000000;"
         offset="0.0000000"
         id="stop1546" /><stop
         style="stop-color:#ffffff;stop-opacity:0.0000000;"
         offset="1.0000000"
         id="stop1547" /></linearGradient><inkscape:perspective
       id="perspective22"
       inkscape:persp3d-origin="371.875 : 243.33333 : 1"
       inkscape:vp_z="743.75 : 365 : 1"
       inkscape:vp_y="0 : 1000 : 0"
       inkscape:vp_x="0 : 365 : 1"
       sodipodi:type="inkscape:persp3d" /></defs><sodipodi:namedview
     pagecolor="#ffffff"
     bordercolor="#666666"
     borderopacity="1"
     objecttolerance="10"
     gridtolerance="10"
     guidetolerance="10"
     inkscape:pageopacity="0"
     inkscape:pageshadow="2"
     inkscape:window-width="1592"
     inkscape:window-height="1129"
     id="namedview35"
     showgrid="false"
     inkscape:zoom="1"
     inkscape:cx="396.90636"
     inkscape:cy="242.68127"
     inkscape:window-x="0"
     inkscape:window-y="0"
     inkscape:current-layer="g43"
     inkscape:snap-grids="false"
     inkscape:snap-to-guides="true"
     inkscape:showpageshadow="false"
     showborder="true"
     showguides="true"
     inkscape:guide-bbox="true"
     inkscape:snap-page="false"><sodipodi:guide
       orientation="0,1"
       position="99.00001,45"
       id="guide439" /><sodipodi:guide
       orientation="1,0"
       position="467,331.99998"
       id="guide441" /></sodipodi:namedview><g
     id="g43"
     inkscape:groupmode="layer"
     inkscape:label="ink_ext_XXXXXX"
     transform="matrix(1.25,0,0,-1.25,-148.17329,760.21517)"><g
       id="g211"><rect
         transform="scale(1,-1)"
         y="-608.17212"
         x="118.53864"
         height="409.60001"
         width="409.60001"
         id="rect12"
         style="fill:#ffffff;fill-opacity:1" /><path
         sodipodi:nodetypes="ccccccccccccc"
         id="path47"
         d="m 322.63665,571.46668 c -67.00382,-2.51235 -137.30627,-48.47359 -158.85039,-111.89597 -22.27927,-61.18682 -4.86311,-134.26135 42.87325,-178.61597 47.10821,-46.09938 122.12092,-59.70706 182.50662,-33.40758 61.46779,25.18991 104.21044,89.3234 103.28688,155.82341 -40.15787,0 -80.31573,0 -120.4736,0 0.43873,-22.45265 -16.7799,-43.52577 -38.83765,-47.65177 -28.88208,-6.96743 -59.46274,17.96162 -58.44338,47.65177 -0.5157,26.22259 22.4436,49.15874 48.64103,48.64 m 18.56,-35.3536 c 37.97333,19.62667 75.94667,39.25333 113.92,58.88 -18.77333,21.12 -37.54667,42.24 -56.32,63.36 -19.2,-40.74667 -38.4,-81.49333 -57.6,-122.24 z"
         style="fill:#244ba6;fill-opacity:1;fill-rule:nonzero;stroke:none" /><g
         id="g1630"
         transform="matrix(-0.33500575,0,0,-0.33500575,550.70582,424.09552)"><path
           style="fill:#ffa100;fill-opacity:0.75;fill-rule:evenodd;stroke:#000000;stroke-width:2.23749995;stroke-linecap:butt;stroke-linejoin:miter;stroke-miterlimit:4;stroke-opacity:1"
           d="m 533.17776,349.47461 c -28.6542,27.73001 -57.3084,55.46002 -85.96261,83.19003 6.7133,43.37943 13.4266,86.75887 20.1399,130.13831 -37.14248,-19.2252 -74.28497,-38.4504 -111.42745,-57.6756 -36.68236,20.20146 -73.36473,40.40292 -110.04709,60.60438 5.69889,-43.54358 11.39777,-87.08716 17.09666,-130.63073 -29.38425,-28.15378 -58.76849,-56.30756 -88.15274,-84.46134 40.66459,0.057 81.32917,0.11407 121.99376,0.1711 18.5219,-39.05745 37.0438,-78.11491 55.56571,-117.17236 19.43321,38.55554 38.86641,77.11107 58.29962,115.66661 40.83142,0.0565 81.66283,0.11307 122.49424,0.1696 z"
           id="path914" /><path
           style="fill:#ffd800;fill-opacity:0.75;fill-rule:evenodd;stroke:none"
           d="m 501.59065,363.41946 c -23.60274,21.45205 -47.20549,42.90408 -70.80824,64.35613 5.52981,34.59822 11.05963,69.19646 16.58943,103.79469 -30.59462,-15.33348 -61.18924,-30.66697 -91.78386,-46.00045 -30.21562,16.11212 -60.43124,32.22424 -90.64686,48.33636 4.69423,-34.72915 9.38846,-69.45829 14.08269,-104.18743 -24.20409,-21.79003 -48.40818,-43.58005 -72.61227,-65.37008 33.49582,0.0455 66.99163,0.091 100.48745,0.13646 15.25667,-31.81578 30.51333,-63.63156 45.77,-95.44734 16.00732,31.41547 32.01465,62.83093 48.02197,94.2464 33.63323,0.0451 67.26646,0.0902 100.89969,0.13526 z"
           id="path1538" /><path
           style="fill:#ffe500;fill-opacity:0.75;fill-rule:evenodd;stroke:none"
           d="m 469.92956,371.34266 c -18.53946,16.98535 -37.07891,33.97071 -55.61837,50.95606 4.34355,27.39428 8.68709,54.78856 13.03064,82.18284 -24.03142,-12.14079 -48.06285,-24.28158 -72.09428,-36.42236 -23.73372,12.75729 -47.46745,25.51459 -71.20117,38.27189 3.68721,-27.49794 7.37443,-54.99587 11.06165,-82.4938 -19.0118,-17.25297 -38.02361,-34.50592 -57.0354,-51.75889 26.31025,0.036 52.62051,0.072 78.93076,0.10805 11.98379,-25.19119 23.96758,-50.38237 35.95137,-75.57355 12.57341,24.87422 25.14682,49.74844 37.72023,74.62266 26.4182,0.0357 52.83638,0.0714 79.25457,0.1071 z"
           id="path1539" /><path
           style="fill:url(#radialGradient27);fill-opacity:1;fill-rule:evenodd;stroke:none"
           d="m 352.95121,296.60491 c -11.98135,25.19533 -23.96269,50.39065 -35.94404,75.58598 -26.3128,-0.0372 -52.6256,-0.0745 -78.9384,-0.11168 19.1086,15.99278 38.21721,31.98555 57.32582,47.97833 21.38103,3.91174 42.7564,8.76775 64.14094,12.09342 18.25675,-3.28659 36.5135,-6.57319 54.77025,-9.85979 11.72255,-16.47673 23.44511,-32.95346 35.16766,-49.43019 -19.59821,-0.54352 -39.19642,-1.08703 -58.79463,-1.63055 -12.57587,-24.87517 -25.15173,-49.75035 -37.7276,-74.62552 z"
           id="path1548" /><path
           style="fill:url(#radialGradient30);fill-opacity:1;fill-rule:evenodd;stroke:none"
           d="m 449.46971,372.85821 c -11.71951,16.48017 -23.43902,32.96034 -35.15852,49.44051 -18.88063,3.1596 -37.76702,7.26724 -56.64409,9.84038 -20.76016,-4.03023 -41.52032,-8.06045 -62.28049,-12.09067 -19.10466,-15.99001 -38.20932,-31.98002 -57.31398,-47.97003 26.31025,0.036 52.62051,0.072 78.93076,0.10805 11.98379,-25.19119 23.96758,-50.38237 35.95137,-75.57355 12.57341,24.87422 25.14682,49.74844 37.72023,74.62266 19.59824,0.54088 39.19648,1.08176 58.79472,1.62265 z"
           id="path1540" /></g></g></g></svg>