<?xml version="1.0" encoding="UTF-8" standalone="no"?>
<!-- Created with Inkscape (http://www.inkscape.org/) -->

<svg
   xmlns:dc="http://purl.org/dc/elements/1.1/"
   xmlns:cc="http://creativecommons.org/ns#"
   xmlns:rdf="http://www.w3.org/1999/02/22-rdf-syntax-ns#"
   xmlns:svg="http://www.w3.org/2000/svg"
   xmlns="http://www.w3.org/2000/svg"
   xmlns:sodipodi="http://sodipodi.sourceforge.net/DTD/sodipodi-0.dtd"
   xmlns:inkscape="http://www.inkscape.org/namespaces/inkscape"
   xml:space="preserve"
   width="125mm"
   height="125mm"
   version="1.1"
   style="shape-rendering:geometricPrecision; text-rendering:geometricPrecision; image-rendering:optimizeQuality; fill-rule:evenodd; clip-rule:evenodd"
   viewBox="0 0 12500 12500"
   id="svg26"
   sodipodi:docname="opennx-wizard.svg"
   inkscape:version="0.92.1 r15371"><metadata
     id="metadata30"><rdf:RDF><cc:Work
         rdf:about=""><dc:format>image/svg+xml</dc:format><dc:type
           rdf:resource="http://purl.org/dc/dcmitype/StillImage" /></cc:Work></rdf:RDF></metadata><sodipodi:namedview
     pagecolor="#ffffff"
     bordercolor="#666666"
     borderopacity="1"
     objecttolerance="10"
     gridtolerance="10"
     guidetolerance="10"
     inkscape:pageopacity="0"
     inkscape:pageshadow="2"
     inkscape:window-width="1920"
     inkscape:window-height="1137"
     id="namedview28"
     showgrid="false"
     inkscape:zoom="1.9981333"
     inkscape:cx="159.64786"
     inkscape:cy="107.11012"
     inkscape:window-x="0"
     inkscape:window-y="0"
     inkscape:window-maximized="1"
     inkscape:current-layer="svg26" /><defs
     id="defs10" /><path
     id="disc"
     class="fil0"
     d="m 6250.01,7865.01 c -888.45,0 -1608.68,-721.63 -1608.68,-1611.81 0,-890.18 720.23,-1611.81 1608.63,-1611.81 l -23.2,-3950.71 c -3075.18,14.1 -5563.7,2498.27 -5563.7,5560.59 0,3071.05 2502.74,5560.64 5590.03,5560.64 3087.24,0 5589.8,-2488.96 5590.01,-5561.46 l -3984.41,2.75 C 7857,7154.06 7129.87,7865.01 6250.01,7865.01 Z"
     inkscape:connector-curvature="0"
     style="fill:#244ba6" /><g
     id="saw"><path
       style="fill:#966b3b;stroke:#704721;stroke-width:7.61999989;stroke-miterlimit:22.92560005"
       inkscape:connector-curvature="0"
       sodipodi:nodetypes="cccccccccccccccccccccc"
       d="m 10545.01,4010.17 -1179.84,-1198.06 655.25,-424.16 912.74,1340.9 z m 1098.22,-133.94 c 91.04,-305.01 27.31,-562.77 -389.65,-653.46 l -549.13,-1026.6 c -37.89,-505.57 -127.65,-654.81 -588.83,-822.7 L 8474.48,2876.29 c 0,0 1270.6,1116.04 1905.9,1674.05 z"
       class="fil2 str1"
       id="path1" /><polygon
       style="fill:#797b79;stroke:#1f1b20;stroke-width:20;stroke-miterlimit:22.92560005"
       inkscape:connector-curvature="0"
       sodipodi:nodetypes="ccccccccccccccccccccccccccccccccc"
       points="5754.55,6764.11 6168.97,7090.62 6165.22,6512.37 6596.13,6853.12 6554.87,6264.1 7015.76,6606.81 6981.97,6036.03 7396.76,6418.29 7329.98,5826.55 7801.24,6181.53 7710.19,5601.89 8194.81,5972.29 8087.59,5382.14 8584.1,5754.91 8478.34,5183.82 8968.86,5543.37 8906.18,4966.58 9376.62,5317.74 9285.43,4754.26 9779.19,5090.25 9688.17,4507.6 10175.13,4886.75 10172.34,4367.61 8571.37,2961.4 4841.16,6399.81 5352.88,7044.93 5790.9,7299.37 "
       class="fil1 str0"
       id="path2" /></g><g
     id="star"><path
       class="fil3"
       d="m 7907.46,9277.21 c 317.48,307.24 634.96,614.48 952.43,921.71 -74.38,480.63 -148.76,961.26 -223.14,1441.88 411.52,-213.01 823.05,-426.02 1234.57,-639.02 406.43,223.82 812.85,447.65 1219.28,671.47 -63.14,-482.45 -126.28,-964.89 -189.42,-1447.34 325.57,-311.93 651.13,-623.87 976.7,-935.8 -450.55,0.63 -901.1,1.26 -1351.64,1.9 -205.22,-432.74 -410.43,-865.48 -615.65,-1298.22 -215.31,427.18 -430.62,854.36 -645.94,1281.54 -452.4,0.63 -904.79,1.25 -1357.19,1.88 z"
       id="path16"
       inkscape:connector-curvature="0"
       style="fill:#ffa100;fill-opacity:0.74901997" /><path
       class="fil4 str2"
       d="m 7907.46,9277.21 c 317.48,307.24 634.96,614.48 952.43,921.71 -74.38,480.63 -148.76,961.26 -223.14,1441.88 411.52,-213.01 823.05,-426.02 1234.57,-639.02 406.43,223.82 812.85,447.65 1219.28,671.47 -63.14,-482.45 -126.28,-964.89 -189.42,-1447.34 325.57,-311.93 651.13,-623.87 976.7,-935.8 -450.55,0.63 -901.1,1.26 -1351.64,1.9 -205.22,-432.74 -410.43,-865.48 -615.65,-1298.22 -215.31,427.18 -430.62,854.36 -645.94,1281.54 -452.4,0.63 -904.79,1.25 -1357.19,1.88 z"
       id="path18"
       inkscape:connector-curvature="0"
       style="fill:none;stroke:#000000;stroke-width:24.79000092;stroke-miterlimit:22.92560005" /><path
       id="path1538"
       class="fil5"
       d="m 8257.43,9431.72 c 261.51,237.68 523.02,475.36 784.53,713.04 -61.27,383.34 -122.54,766.67 -183.8,1150.01 338.98,-169.89 677.95,-339.78 1016.93,-509.67 334.78,178.52 669.56,357.03 1004.33,535.55 -52.01,-384.79 -104.02,-769.57 -156.03,-1154.36 268.17,-241.43 536.34,-482.85 804.52,-724.28 -371.12,0.5 -742.24,1.01 -1113.36,1.51 -169.04,-352.51 -338.08,-705.01 -507.11,-1057.52 -177.35,348.07 -354.71,696.14 -532.07,1044.21 -372.64,0.5 -745.29,1 -1117.93,1.5 z"
       inkscape:connector-curvature="0"
       style="fill:#ffd800;fill-opacity:0.74901997" /><path
       id="path1539"
       class="fil6"
       d="m 8608.23,9519.5 c 205.41,188.19 410.82,376.38 616.23,564.57 -48.12,303.52 -96.25,607.04 -144.37,910.55 266.26,-134.52 532.52,-269.03 798.78,-403.55 262.96,141.35 525.92,282.69 788.88,424.04 -40.85,-304.67 -81.71,-609.33 -122.56,-914 210.64,-191.16 421.29,-382.31 631.93,-573.47 -291.51,0.4 -583.02,0.8 -874.52,1.2 -132.78,-279.11 -265.55,-558.22 -398.33,-837.33 -139.31,275.6 -278.62,551.19 -417.93,826.79 -292.7,0.4 -585.41,0.79 -878.11,1.19 z"
       inkscape:connector-curvature="0"
       style="fill:#ffe500;fill-opacity:0.74901997" /><path
       id="path1548"
       class="fil7"
       d="m 9904.3,8691.44 c 132.75,279.15 265.5,558.31 398.25,837.46 291.54,-0.41 583.07,-0.83 874.61,-1.24 -211.72,177.19 -423.43,354.39 -635.15,531.58 -236.89,43.34 -473.72,97.14 -710.66,133.99 -202.28,-36.41 -404.56,-72.83 -606.83,-109.24 -129.88,-182.56 -259.76,-365.11 -389.64,-547.67 217.14,-6.02 434.28,-12.04 651.42,-18.07 139.34,-275.61 278.67,-551.21 418.01,-826.82 z"
       inkscape:connector-curvature="0"
       style="fill:url(#id1)" /><path
       id="path1540"
       class="fil8"
       d="m 8834.91,9536.29 c 129.85,182.59 259.7,365.19 389.54,547.78 209.19,35.01 418.44,80.52 627.59,109.03 230.01,-44.65 460.03,-89.31 690.04,-133.96 211.67,-177.16 423.34,-354.33 635.02,-531.49 -291.51,0.4 -583.02,0.8 -874.52,1.2 -132.78,-279.11 -265.55,-558.22 -398.33,-837.33 -139.31,275.6 -278.62,551.19 -417.93,826.79 -217.14,5.99 -434.28,11.99 -651.42,17.98 z"
       inkscape:connector-curvature="0"
       style="fill:url(#id0)" /></g></svg>